<svg version="1.1" id="Calque_1" xmlns="http://www.w3.org/2000/svg" xmlns:xlink="http://www.w3.org/1999/xlink" x="0px" y="0px"
     viewBox="0 0 819.95 296.52" style="enable-background:new 0 0 819.95 296.52;" xml:space="preserve">
<style type="text/css">
	.st0{fill:#004C3B;}
	.st1{fill-rule:evenodd;clip-rule:evenodd;fill:#005C45;}
</style>
    <path class="st0" d="M548.89,255.66c0,0-0.52,3.41-2.36,5.99c-3.2,4.82-8.34,7.63-14.66,7.63c-11.36,0-20.11-9.64-20.11-22.92
	c0-13.25,8.75-22.89,20.61-22.89c5.82,0,10.36,2.1,13.47,5.81c2,2.47,2.22,5.71,2.22,5.71s5.51-1.21,8.68-7.08
	c1.54-2.88,2.52-6.79,0.1-9.62c-6.12-6.81-15.47-9.3-22.98-9.3c-22.22,0-38.4,14.57-38.4,37.37c0,22.82,16.18,37.38,38.4,37.38
	c9,0,18.2-3.38,24.24-10.53c2.54-2.96,1.48-7.11-0.14-10.12C554.64,256.93,548.89,255.66,548.89,255.66L548.89,255.66z"/>
    <path class="st0" d="M182.86,272.46c-14.1,0-23.94-10.19-23.94-24.78c0-14.58,9.84-24.77,23.94-24.77
	c14.1,0,23.95,10.19,23.95,24.77C206.8,262.28,196.96,272.46,182.86,272.46L182.86,272.46z M182.86,212.59
	c-20.34,0-35.1,14.77-35.1,35.1c0,20.33,14.76,35.09,35.1,35.09c20.34,0,35.1-14.76,35.1-35.09
	C217.96,227.36,203.2,212.59,182.86,212.59L182.86,212.59z"/>
    <path class="st0" d="M267.42,240.85c1.02-4.78,6.22-17.94,21.67-17.94c10.93,0,19.92,7.93,20.7,17.94H267.42L267.42,240.85z
	 M289.5,212.59c-19.39,0-33.44,14.71-33.44,34.97c0,20.74,13.92,35.22,33.85,35.22c12.48,0,22.05-4.64,28.55-13.9
	c1.11-2.02,1.1-4.2-0.07-6.34c-1.92-3.57-5.28-4.34-5.43-4.37l-1.35-0.29l-0.33,1.34c0,0.01-0.35,1.42-1.01,2.59l-0.2,0.34
	c-3.88,6.09-12.04,10.32-20.03,10.32c-17.31,0-22.16-14.48-22.77-21.29h52.28l1.43-0.02v-7.21
	C321,228.36,310.18,212.59,289.5,212.59L289.5,212.59z"/>
    <path class="st0" d="M58.56,240.85c1.01-4.78,6.22-17.94,21.66-17.94c10.94,0,19.92,7.93,20.71,17.94H58.56L58.56,240.85z
	 M80.64,212.59c-19.37,0-33.44,14.71-33.44,34.97c0,20.74,13.92,35.22,33.86,35.22c12.47,0,22.04-4.64,28.54-13.9
	c1.12-2.02,1.09-4.21-0.06-6.34c-1.93-3.57-5.29-4.34-5.43-4.37l-1.36-0.29l-0.33,1.34c-0.01,0.01-0.36,1.44-0.98,2.56
	c-3.78,6.29-12.1,10.69-20.24,10.69c-17.31,0-22.17-14.48-22.77-21.29h52.29l1.41-0.02v-7.21
	C112.14,228.36,101.32,212.59,80.64,212.59L80.64,212.59z"/>
    <path class="st0" d="M352.26,241.44c-9.31-1.89-15.01-3.37-15.01-9.68c0-5.77,7.06-8.84,12.18-8.84c6.59,0,10.76,2.45,13.9,8.19
	c0.72,1.38,1.15,2.97,1.15,2.98l0.35,1.31l1.32-0.3c0.16-0.03,3.79-0.87,5.9-4.75c1.25-2.31,1.27-4.69,0.03-6.94
	c-4.55-7.07-12.37-10.81-22.65-10.81c-11.6,0-23.33,6.82-23.33,19.86c0,14.33,12.42,17.07,22.41,19.28
	c9.69,2.14,15.57,3.91,15.57,10.39c0,6.48-6.75,10.35-13.29,10.35c-7.49,0-14.28-3.84-17.3-9.77c-0.72-1.39-1.16-3.01-1.16-3.02
	l-0.37-1.3l-1.32,0.28c-0.14,0.04-3.84,0.9-5.96,4.82c-1.03,1.92-1.24,3.88-0.62,5.75l-0.2,0.13l0.77,1.17
	c5.17,7.78,14.65,12.26,26.02,12.26c12.21,0,24.56-6.56,24.56-21.23C375.23,246.14,362.49,243.54,352.26,241.44L352.26,241.44z"/>
    <path class="st0" d="M145.54,190.76c3.04,0,5.15,0.39,6.86,1.24c0.57,0.28,0.77,0.45,0.77,0.42l1,1.3l1.14-1.24
	c0.09-0.1,2.03-2.25,1.63-5.94c-0.11-0.91-0.42-3.69-3.48-4.99c-2.38-0.76-5.1-1.12-8.34-1.12c-9.48,0-20.54,5.99-20.54,22.89v10.92
	h-6.15c-3.95,0-7.15,3.21-7.15,7.15v3.17h13.3v56.54h4.57c3.63,0,6.58-2.95,6.58-6.57v-49.96h7.81c3.95,0,7.15-3.21,7.15-7.16v-3.17
	h-14.97v-7.87C135.74,192.38,141.33,190.76,145.54,190.76L145.54,190.76z"/>
    <path class="st0" d="M260.89,218.44c-0.16-1.4-0.49-4.33-3.66-5.3c-1.68-0.52-2.63-0.55-3.81-0.55h-0.49
	c-7.86,0-14.46,3.44-19.3,9.98c-0.08-1.9-0.15-4.17-0.2-6.2l-0.06-2.12h-3.71c-3.95,0-7.17,3.21-7.17,7.15
	c0,1.54,0.11,3.27,0.21,5.16c0.12,2.17,0.25,4.6,0.25,7.14v47.41h4.58c3.63,0,6.59-2.94,6.59-6.57v-29.78
	c0-13.16,7.29-21.02,19.51-21.02c0.61,0,1.68,0.15,2.76,0.5c0.65,0.21,0.92,0.4,0.9,0.35l1.02,1.01l1-1.06
	C259.5,224.32,261.31,222.26,260.89,218.44L260.89,218.44z"/>
    <path class="st0" d="M48.4,224.54c0.2-0.23,2-2.28,1.57-6.1c-0.16-1.4-0.48-4.33-3.65-5.3c-1.68-0.52-2.65-0.55-3.82-0.55h-0.49
	c-7.86,0-14.46,3.44-19.3,9.98c-0.08-1.9-0.14-4.17-0.21-6.2l-0.06-2.12h-3.71c-3.95,0-7.15,3.21-7.15,7.15
	c0,1.54,0.08,3.27,0.18,5.16c0.13,2.17,0.27,4.6,0.27,7.14v47.42h4.57c3.62,0,6.57-2.95,6.57-6.57v-29.78
	c0-13.16,7.31-21.02,19.53-21.02c0.6,0,1.68,0.15,2.76,0.5c0.65,0.21,0.92,0.4,0.9,0.35l1.02,1.01L48.4,224.54L48.4,224.54z"/>
    <path class="st0" d="M694.7,269.25c-13.37,0-22.09-9.63-22.09-22.89c0-13.25,8.72-22.88,22.09-22.88c13.38,0,22.11,9.63,22.11,22.88
	C716.81,259.62,708.08,269.25,694.7,269.25L694.7,269.25z M694.7,209c-22.21,0-38.37,14.56-38.37,37.35
	c0,22.8,16.16,37.36,38.37,37.36c22.2,0,38.38-14.56,38.38-37.36C733.08,223.56,716.9,209,694.7,209L694.7,209z"/>
    <path class="st0" d="M628.69,222.18v46.74l-0.01-0.02c0,10.22-3.84,13.01-3.84,13.01h12.57c3.85,0,6.94-3.1,6.94-6.91v-51.18v0.03
	c0-10.22,1.41-13.01,1.41-13.01h-5.7C633.77,210.83,628.69,215.91,628.69,222.18L628.69,222.18z"/>
    <path class="st0" d="M607.7,210.81l0.04,0.01h-31.9c-6.28,0-11.38,5.09-11.38,11.35v6.35c0,0,2.8-3.84,13.01-3.84h-0.03h3.9
	c1.88,0,3.41,1.89,3.41,3.42v40.82v-0.02c0,10.22-3.84,13.01-3.84,13.01h12.57c3.84,0,6.93-3.1,6.93-6.93l0.01-46.88
	c0-1.89,1.9-3.42,3.41-3.42h5.51c6.26,0,11.35-5.08,11.35-11.36h0.01v-6.35C620.71,206.97,617.91,210.81,607.7,210.81L607.7,210.81z
	"/>
    <path class="st0" d="M799.87,212.62c-6.28,0-9.86,5.09-9.87,11.37v29.37c0,1.05-0.85,1.89-1.9,1.89c-0.64,0-1.23-0.36-1.58-0.86
	c0,0-8.96-16.01-12.36-22.24c-6.63-12.13-9.57-19.53-17.98-19.53c-6.36,0-11.36,5.09-11.36,11.37v44.91
	c0,10.22-3.99,13.01-3.99,13.01h9.65c6.26,0,9.85-5.08,9.86-11.36v-29.38c0-1.04,0.86-1.88,1.9-1.88c0.65,0,1.26,0.35,1.6,0.84
	c0,0,8.96,16.02,12.36,22.25c6.63,12.15,9.56,19.53,17.98,19.53c6.36,0,11.35-5.08,11.36-11.36v-44.91
	c0-10.23,3.99-13.02,3.99-13.02H799.87L799.87,212.62z"/>
    <path class="st0" d="M463.72,253.59h-10.54c-1.53,0-2.97-1.22-1.96-3.63l7.17-18.45l7.27,18.45
	C466.66,252.37,465.22,253.59,463.72,253.59L463.72,253.59z M470.28,222.22c-3.94-9.4-0.73-9.86-0.73-9.86s-0.8-0.88-4.23-1.54
	c-7.48-1.09-13.63,2.08-17.86,11.36c-0.33,0.65-8.91,25.95-13.54,36.08c-5.62,12.31-8.68,19.88-17.78,19.88
	c-15.06,0-15.57-14.1-15.57-29.18v-24.39l11.14-0.01c3.95,0,7.14-3.22,7.14-7.16v-3.16h-18.28v-35.04c0,0-0.88,0.54-4.47,3.64
	c-4.85,4.19-6.7,10.06-6.7,15.92v15.49h-6.71c-3.69,0-6.73,2.8-7.13,6.38l-0.01,3.94h13.85v29.55c0,20.5,9.39,28.25,21.18,30.08
	c14.06,2.19,26.8-2.63,33.01-14.24c0.63-1.7,3.14-3.13,4.66-3.13h20.78c1.53,0,4.03,1.43,4.66,3.13l1.15,2.8
	c3.15,7.18-0.09,9.13-0.09,9.13h12.84c5.31,0,6.87-4.38,4.96-8.6L470.28,222.22L470.28,222.22z"/>
    <path class="st0" d="M492.24,71.04c9.04-15.46-4.94-35.05-4.94-35.05c-1.28,10.1-12.76,11.76-23.05,25.36
	c-10.31,13.6-2.17,26.61-2.17,26.61S483.22,86.5,492.24,71.04L492.24,71.04z"/>
    <path class="st0" d="M444.81,65.1c0,0,10.92-10.77,4.04-26.38c-6.89-15.6-17.67-19.88-16.58-30c0,0-18.12,15.84-12.91,32.97
	C424.57,58.81,444.81,65.1,444.81,65.1L444.81,65.1z"/>
    <path class="st0" d="M424.09,88.96c0,0,7-7.85,1.58-18.19c-5.4-10.33-12.95-12.77-12.64-19.73c0,0-11.67,11.62-7.35,23.08
	C410.01,85.58,424.09,88.96,424.09,88.96L424.09,88.96z"/>
    <path class="st0" d="M474.32,130.91c0,0,17.31,3.76,28.17-6.54c10.85-10.31,4.18-29.3,4.18-29.3c-3.36,7.81-12.99,6.47-24.43,14.99
	C470.81,118.57,474.32,130.91,474.32,130.91L474.32,130.91z"/>
    <path class="st0" d="M492.19,157.07c-10.36-13.59-25.04-9.21-25.04-9.21s-4.3,20.74,8.17,33.57c12.48,12.85,35.11,4.66,35.11,4.66
	C501.05,182.14,502.5,170.64,492.19,157.07L492.19,157.07z"/>
    <path class="st0" d="M489.38,146.71c0,0,14.52,15.44,32.2,12.59c17.68-2.83,23.96-26.06,23.96-26.06
	c-8.63,5.42-17.18-2.4-34.22-1.73C494.25,132.18,489.38,146.71,489.38,146.71L489.38,146.71z"/>
    <path class="st0" d="M394.87,131.26c0,0,3.16-13.07-9.17-21.54c-12.35-8.46-22.36-6.67-26.22-14.72c0,0-6.2,20.19,5.6,30.54
	C376.87,135.92,394.87,131.26,394.87,131.26L394.87,131.26z"/>
    <path class="st0" d="M403.55,131.81c-9.11,6.71-10.34,14.3-17.05,15.05c0,0,12.87,9.47,23.22,3.63
	c10.34-5.83,11.51-19.85,11.51-19.85S412.69,125.1,403.55,131.81L403.55,131.81z"/>
    <path class="st0" d="M396.17,74.8c-8.51-5.03-15.04-3.4-17.94-8.53c0,0-3.18,13.58,5.07,19.89c8.24,6.31,19.89,2.43,19.89,2.43
	S404.71,79.83,396.17,74.8L396.17,74.8z"/>
    <path class="st0" d="M345.66,160.61c15.03,11.13,35.92,3.83,35.92,3.83s2.48-15.82-13.01-24.66c-15.48-8.83-27.19-5.71-32.57-14.88
	C335.99,124.9,330.63,149.46,345.66,160.61L345.66,160.61z"/>
    <path class="st1" d="M434.11,86.91c0,7.89,4.57,14.29,10.2,14.29c5.63,0,10.2-6.4,10.2-14.29s-4.57-14.29-10.2-14.29
	C438.68,72.63,434.11,79.03,434.11,86.91L434.11,86.91z"/>
    <path class="st0" d="M485.74,87.38c-39.56,35.21-100.38,6.79-100.38,6.79s7.79,9.28,22.53,16.92c14.74,7.64,21.47,6.25,21.84,13.65
	c2.22,45.43-10.41,62.13-10.41,62.13c17.8-7.91,22.49-34.11,22.49-34.11s6.03,27.91-13.19,61.64c0,0,7.55-4.6,14.99-16.39
	c10.32-14.65,12.91-31.11,13.78-44.68c0.3-3.66,0.5-7.51,0.52-11.57c0.05-1.7,0.12-3.33,0.21-4.81c0.99-16.31,0.99-17.3,12.36-27.18
	c11.36-9.88,18.19-25.12,18.19-25.12S487.77,85.74,485.74,87.38L485.74,87.38z"/>
</svg>
